# xmcd CD database file
#
# Track frame offsets:
#	150
#	16392
#	30684
#	48740
#	59911
#	75038
#	99521
#	113344
#	130326
#	147495
#	166797
#	184799
#	198999
#	213174
#	231896
#	247064
#	259973
#	273621
#
# Disc length: 3777 seconds
#
# Revision: 0
# Processed by: cddbd v1.5.2PL0 Copyright (c) Steve Scherf et al.
# Submitted via: CDex 1.51
#
DISCID=020ebf12
DTITLE=Nina Simone - Essential Early Recordings CD1_2
DYEAR=2010
DGENRE=Jazz
TTITLE0=My Baby Just Cares For Me
TTITLE1=Don't Smoke In Bed
TTITLE2=Mood Indigo
TTITLE3=He Needs M
TTITLE4=Love Me Or Leave Me
TTITLE5=Good Bait
TTITLE6=Central Park Blues
TTITLE7=You'll Never Walk Alone
TTITLE8=Plain Gold Ring
TTITLE9=Little Girl Blue
TTITLE10=For All We Know
TTITLE11=He's Got The Whole World In His Hands
TTITLE12=African Mailman
TTITLE13=I Loves You Porgy
TTITLE14=Blue Prelude
TTITLE15=Children Go Where I Send You
TTITLE16=Tomorrow (We Will Meet Once More)
TTITLE17=Stompin' At The Savoy
EXTD=YEAR: 2010
EXTT0=
EXTT1=
EXTT2=
EXTT3=
EXTT4=
EXTT5=
EXTT6=
EXTT7=
EXTT8=
EXTT9=
EXTT10=
EXTT11=
EXTT12=
EXTT13=
EXTT14=
EXTT15=
EXTT16=
EXTT17=
PLAYORDER=
